<?xml version="1.0" encoding="UTF-8" standalone="no"?><!DOCTYPE svg PUBLIC "-//W3C//DTD SVG 1.1//EN" "http://www.w3.org/Graphics/SVG/1.1/DTD/svg11.dtd"><svg width="100%" height="100%" viewBox="0 0 3549 1111" version="1.1" xmlns="http://www.w3.org/2000/svg" xmlns:xlink="http://www.w3.org/1999/xlink" xml:space="preserve" xmlns:serif="http://www.serif.com/" style="fill-rule:evenodd;clip-rule:evenodd;stroke-linejoin:round;stroke-miterlimit:2;"><path d="M660.261,515.89c0,-0 4.479,-4.479 12.384,-12.384c69.758,-69.758 100.206,-169.668 81.209,-266.475c-18.997,-96.806 -84.946,-177.8 -175.893,-216.022c-0.003,-0.001 -0.006,-0.002 -0.008,-0.003c-30.227,-12.703 -65.136,-5.853 -88.321,17.332c-55.969,55.969 -153.461,153.461 -153.461,153.461l0.007,0c178.986,0 324.083,145.097 324.083,324.084l0,0.007Z" style="fill:#2374ca;"/><path d="M515.951,1042.09c41.944,41.944 103.761,57.032 160.313,39.127c0.008,-0.002 0.016,-0.005 0.024,-0.008c110.246,-34.904 187.647,-134.053 194.753,-249.475c7.106,-115.421 -57.549,-223.316 -162.681,-271.48c-14.003,-6.415 -25.371,-11.623 -33.533,-15.362c-9.598,-4.397 -20.031,-6.673 -30.588,-6.673c-0.193,-0 -0.389,-0 -0.585,-0c-81.55,-0 -159.759,32.395 -217.424,90.06c-57.664,57.664 -90.059,135.874 -90.059,217.423l-0,16.608c-0,-0 106.353,106.353 179.78,179.78Z" style="fill:#2374ca;"/><path d="M324.091,852.138l-0,-20.982c-0,-81.494 32.373,-159.651 89.998,-217.276c57.626,-57.625 135.782,-89.999 217.277,-89.999l5.507,0c1.894,0 3.71,-0.752 5.05,-2.092c1.339,-1.339 2.092,-3.155 2.092,-5.05c-0,-0.002 -0,-0.004 -0,-0.007c-0,-82.953 -32.953,-162.508 -91.61,-221.165c-58.657,-58.657 -138.212,-91.61 -221.165,-91.61l-7.149,0c-0,0 -63.275,63.275 -133.908,133.908c-50.44,50.44 -78.777,118.851 -78.777,190.183c0,71.332 28.337,139.743 78.777,190.183c70.633,70.632 133.908,133.907 133.908,133.907Z" style="fill:#2374ca;"/><path d="M1045.99,350.098l129.454,-0c79.299,-0 73.199,128.132 -1.355,128.132l-128.099,0l-0,-128.132Zm-67.666,-64.956l-0,478.233l214.064,-0c90.786,-0 137.475,-71.734 137.475,-142.912c0,-44.741 -19.623,-94.867 -73.764,-117.873c92.057,-69.543 41.285,-217.448 -80.655,-217.448l-197.12,-0Zm67.666,260.754l146.398,-0c46.089,-0 69.132,37.961 69.132,75.245c0,37.283 -23.043,75.923 -69.132,75.923l-146.398,-0l-0,-151.168Z" style="fill:#2374ca;fill-rule:nonzero;"/><path d="M1486.64,651.218l-48.417,-139.383l-65.29,-161.319l-76.294,-0l161.391,399.737l57.22,-0l160.657,-399.737l-76.294,-0l-64.556,162.786l-48.417,137.916Z" style="fill:#2374ca;fill-rule:nonzero;"/><rect x="1677.33" y="527.549" width="87.305" height="56.158" style="fill:#2374ca;fill-rule:nonzero;"/><path d="M1854.89,526.29c0,-97.584 77.932,-176.192 175.517,-176.192c97.584,-0 176.193,78.608 176.193,176.192c0,97.584 -78.609,175.516 -176.193,175.516c-97.585,0 -175.517,-77.932 -175.517,-175.516Zm-70.375,0c-0,136.889 109.002,245.892 245.892,245.892c136.889,0 246.568,-109.003 246.568,-245.892c-0,-136.889 -109.679,-246.568 -246.568,-246.568c-136.89,-0 -245.892,109.679 -245.892,246.568Z" style="fill:#2374ca;fill-rule:nonzero;"/><path d="M2304.86,432.447l0,331.572l59.999,0l0,-180.227c0,-58.236 33.165,-104.211 93.205,-102.986c65.758,1.226 80.625,43.524 80.625,105.439l-0,177.774l55.371,0l-0,-178.387c-0,-95.018 -39.959,-158.082 -134.281,-158.082c-38.883,-0 -72.047,10.406 -94.92,45.91l0,-41.013l-59.999,-0Z" style="fill:#2374ca;fill-rule:nonzero;"/><rect x="2646.92" y="363.634" width="59.999" height="400.385" style="fill:#2374ca;fill-rule:nonzero;"/><path d="M2818.91,764.019l-59.999,0l0,-335.32l59.999,0l0,335.32Zm-67.355,-388.201c0,46.589 74.712,46.589 74.712,0c-0,-46.589 -74.712,-45.363 -74.712,0Z" style="fill:#2374ca;fill-rule:nonzero;"/><path d="M2885.02,432.447l0,331.572l59.999,0l0,-180.227c0,-58.236 35.57,-104.211 99.963,-102.986c70.526,1.226 86.471,43.524 86.471,105.439l0,177.774l59.386,0l0,-178.387c0,-95.018 -42.856,-158.082 -144.017,-158.082c-41.702,-0 -77.272,10.406 -101.803,45.91l0,-41.013l-59.999,-0Z" style="fill:#2374ca;fill-rule:nonzero;"/><path d="M3547.65,583.836c-6.743,-104.255 -87.661,-156.286 -169.806,-156.286c-87.661,-0 -172.257,56.938 -172.257,170.976c-0,114.073 85.822,171.624 171.031,171.624c68.045,-0 136.09,-36.117 161.224,-108.468l-61.915,-0c-19.616,37.421 -57.623,55.212 -98.696,55.212c-49.654,-0 -111.569,-39.262 -111.569,-104.29l280.762,0c1.839,-8.569 2.452,-18.974 1.226,-28.768Zm-279.536,-20.81c12.261,-58.903 61.302,-82.833 109.73,-82.833c47.816,-0 95.018,23.316 106.665,82.833l-216.395,-0Z" style="fill:#2374ca;fill-rule:nonzero;"/></svg>