<?xml version="1.0" encoding="UTF-8" standalone="no"?><!DOCTYPE svg PUBLIC "-//W3C//DTD SVG 1.1//EN" "http://www.w3.org/Graphics/SVG/1.1/DTD/svg11.dtd"><svg width="100%" height="100%" viewBox="0 0 5576 881" version="1.1" xmlns="http://www.w3.org/2000/svg" xmlns:xlink="http://www.w3.org/1999/xlink" xml:space="preserve" xmlns:serif="http://www.serif.com/" style="fill-rule:evenodd;clip-rule:evenodd;stroke-linejoin:round;stroke-miterlimit:2;"><path d="M1268.48,119.938l209.655,0c128.428,0 118.549,207.515 -2.195,207.515l-207.46,-0l0,-207.515Zm-109.586,-105.197l-0,674.511l100,100l246.683,0c147.03,0 222.645,-116.175 222.645,-231.45c0,-72.458 -31.78,-153.639 -119.464,-190.898c149.089,-112.627 66.862,-352.163 -130.623,-352.163l-319.241,-0Zm109.586,422.298l237.097,0c74.642,0 111.961,61.479 111.961,121.861c0,60.382 -37.319,122.96 -111.961,122.96l-237.097,0l0,-244.821Z" style="fill-rule:nonzero;"/><path d="M470.63,1.659l394.942,399.52l-0,479.142c167.496,-0 253.637,-131.797 253.637,-262.573c-0,-82.202 -36.204,-174.299 -136.093,-216.569c169.842,-127.773 76.169,-399.52 -148.806,-399.52l-363.68,0Z" style="fill:#0ca755;fill-rule:nonzero;"/><path d="M1989.23,585.476l-194.941,-570.735l-120.696,-0l275.04,776.705l81.195,0l275.04,-776.705l-118.502,-0l-197.136,570.735Z" style="fill-rule:nonzero;"/><rect x="2218.39" y="403.146" width="296.254" height="90.95" style="fill-rule:nonzero;"/><path d="M2656.26,405.287c0,-158.041 126.213,-285.349 284.254,-285.349c158.04,0 285.351,127.308 285.351,285.349c-0,158.041 -127.311,284.253 -285.351,284.253c-158.041,0 -284.254,-126.212 -284.254,-284.253Zm-113.975,0c-0,221.696 176.533,398.229 398.229,398.229c221.695,0 399.324,-176.533 399.324,-398.229c0,-221.696 -177.629,-399.324 -399.324,-399.324c-221.696,-0 -398.229,177.628 -398.229,399.324Z" style="fill-rule:nonzero;"/><path d="M3490.02,789.252l0,-535.697l370.976,535.697l87.669,0l-0,-766.846l-109.586,-0l-0,540.079l-374.264,-540.079l-85.478,-0l-0,766.846l110.683,0Z" style="fill-rule:nonzero;"/><path d="M4098.25,21.324l-110.684,0l-0,767.928l361.948,0l-0,-110.684l-251.264,0l-0,-657.244Z" style="fill-rule:nonzero;"/><rect x="4387.32" y="14.741" width="110.684" height="774.511" style="fill-rule:nonzero;"/><path d="M4646.49,789.252l-0,-535.697l370.975,535.697l87.669,0l0,-766.846l-109.586,-0l-0,540.079l-374.263,-540.079l-85.479,-0l0,766.846l110.684,0Z" style="fill-rule:nonzero;"/><path d="M5255.82,452.401l311.248,-0l0,-111.781l-311.248,-0l-0,-215.196l318.929,0l-0,-110.683l-430.71,-0l0,674.511l100,100l331.807,0l0,-110.684l-320.026,0l-0,-226.167Z" style="fill-rule:nonzero;"/><path d="M835.29,463.049l-36.17,-36.17l-782.404,-0l452.192,452.192l366.382,0l-0,-416.022Zm-835.29,-64.288l776.287,-0l13.862,-33.465c-95.971,-95.971 -365.296,-365.296 -365.296,-365.296l-177.834,-0c-136.425,-0 -247.019,110.594 -247.019,247.019l0,151.742Z" style="fill:url(#_Linear1);"/><defs><linearGradient id="_Linear1" x1="0" y1="0" x2="1" y2="0" gradientUnits="userSpaceOnUse" gradientTransform="matrix(7.88147e-14,1287.14,-1287.14,7.88147e-14,680.469,-414.172)"><stop offset="0" style="stop-color:#fff;stop-opacity:1"/><stop offset="0.3" style="stop-color:#e9f0f7;stop-opacity:1"/><stop offset="0.66" style="stop-color:#135aa6;stop-opacity:1"/><stop offset="1" style="stop-color:#0d56a4;stop-opacity:1"/></linearGradient></defs></svg>