<?xml version="1.0" encoding="utf-8"?>
<!-- Generator: Adobe Illustrator 23.0.3, SVG Export Plug-In . SVG Version: 6.00 Build 0)  -->
<svg version="1.1" xmlns="http://www.w3.org/2000/svg" xmlns:xlink="http://www.w3.org/1999/xlink" x="0px" y="0px"
	 viewBox="0 0 600 600" style="enable-background:new 0 0 600 600;" xml:space="preserve">
<style type="text/css">
	.st0{fill:#FFFFFF;stroke:#000000;stroke-width:0.75;stroke-miterlimit:10;}
	.st1{fill:#B1CEFC;}
	.st2{fill:#EB506E;}
	.st3{fill:#5185EC;}
	.st4{fill:none;}
	.st5{fill:#FFFFFF;}
	.st6{fill:#F7CD5B;}
	.st7{fill:#040844;}
	.st8{opacity:0.47;fill:#DDDDDD;}
	.st9{opacity:0.44;fill:#E8E8E8;}
	.st10{fill:none;stroke:#5185EC;stroke-miterlimit:10;}
	.st11{fill:#5185EC;stroke:#5185EC;stroke-miterlimit:10;}
</style>
<g id="backgrouynd">
	<g>
		<g>
			<path d="M100.6,562.9c78-26.1,155.6-53.6,232.7-82.5c0.4-0.2,0.3-0.9-0.2-0.7c-77.1,28.8-154.7,56.3-232.7,82.5
				C100,562.3,100.2,563,100.6,562.9L100.6,562.9z"/>
		</g>
	</g>
	<g>
		<g>
			<path d="M356.3,478.5c75.7,3.5,151.5,7.1,227.2,10.6c0.5,0,0.5-0.7,0-0.8c-75.7-3.5-151.5-7.1-227.2-10.6
				C355.8,477.7,355.8,478.5,356.3,478.5L356.3,478.5z"/>
		</g>
	</g>
</g>
<g id="plant">
	<path d="M248.5,558c-4.9,1.7-12.3,3.8-21.5,3.9c-8.5,0.1-15.5-1.3-20.2-2.8c-2.8-19.5-5.5-39-8.3-58.6h57.2L248.5,558z"/>
	<ellipse class="st0" cx="227.1" cy="499" rx="28.6" ry="14"/>
	<g>
		<g>
			<path class="st1" d="M232.2,499.6c-4.9-5.4-9.2-11.3-11.5-18.3c-2.4-7.3-2.2-15.2-2.1-22.9c0-1.9-3-1.9-3,0
				c-0.1,8.5-0.2,17.1,2.8,25.2c2.5,6.9,6.9,12.7,11.8,18.1C231.3,503.1,233.5,501,232.2,499.6L232.2,499.6z"/>
		</g>
	</g>
	<g>
		<g>
			<path class="st1" d="M226.5,492.5c0.3-9,5.5-17.7,7.2-26.6c1.4-7.5,1.5-15-0.8-22.3c-0.6-1.8-3.5-1.1-2.9,0.8
				c2.7,8.6,1.9,17.3-0.4,25.9c-2,7.4-5.8,14.4-6.1,22.2C223.5,494.5,226.5,494.5,226.5,492.5L226.5,492.5z"/>
		</g>
	</g>
	<g>
		<g>
			<path class="st1" d="M232.4,472.7c4.4-6.5,9.4-13,12.3-20.4c3.1-7.8,2.8-15.9,2-24.2c-0.2-1.9-3.2-1.9-3,0
				c0.8,8.7,1.1,17.1-2.7,25.1c-3,6.4-7.3,12.1-11.2,17.9C228.7,472.8,231.3,474.3,232.4,472.7L232.4,472.7z"/>
		</g>
	</g>
	<g>
		<g>
			<path class="st1" d="M233.4,454c-2.8-5-6.9-9-10-13.7c-3.8-5.7-6-12.2-6.8-19c-0.2-1.9-3.2-1.9-3,0c0.7,6.2,2.3,12.2,5.4,17.6
				c3.3,6,8.4,10.7,11.8,16.6C231.7,457.2,234.3,455.7,233.4,454L233.4,454z"/>
		</g>
	</g>
	<path class="st1" d="M203,448.8c-0.3,2.4-0.6,7.1,1.5,12.4c3.5,8.9,11.3,12.7,13.1,13.6c-0.4-3.4-1.6-9-5.2-15
		C209.3,454.3,205.6,450.8,203,448.8z"/>
	<path class="st1" d="M216.9,462.6c-2.2-3.5-3.5-6.6-4.3-9c-0.6-1.8-2.6-8.2-2.2-16.7c0.2-3,0.6-5.5,1-7.3c1.6,2.7,3.2,6.1,4.4,10.2
		C218.7,449.3,217.9,457.6,216.9,462.6z"/>
	<path class="st1" d="M232.1,447.6c-1.2-2.3-2.4-5-3.2-8.2c-2.7-10.4-0.4-19.4,1.2-23.9c1.4,2.1,2.8,4.9,3.8,8.2
		C237.1,434.5,233.6,444,232.1,447.6z"/>
	<path class="st1" d="M225.1,486.5c0.3-1.3,0.9-3.4,2.4-5.4c0.6-0.8,2.7-3.4,9.8-5.8c3-1,7.6-2.3,13.4-2.6c-0.6,2.2-1.9,5-4.2,7.6
		C238.8,488.7,226.4,486.7,225.1,486.5z"/>
	<path class="st1" d="M216,427c-2.3-1.5-6.3-4.5-9.2-9.6c-5.2-9.1-3.4-18.2-2.9-20.6c1.9,2,4,4.5,5.9,7.6
		C215.3,413.2,216,422.1,216,427z"/>
</g>
<g id="character">
	<g id="leg_right">
		<path class="st2" d="M396.3,513.7c-2.8,2.6-6.6,6.2-11.1,10.4c-19.5,18.8-29.3,28.1-28,30.2c1.3,2.1,14-1.9,59.2-25.7
			c-1.4-6.4-2.8-12.7-4.1-19.1C407,510.9,401.7,512.3,396.3,513.7z"/>
		<path class="st3" d="M340.6,295.9c0.4,2.9,0.9,7.5,1.9,13c3.3,19.7,7.8,34.1,9.3,38.7c4.1,13.3,1.2,6.7,21,84.4
			c6.3,24.7,13.5,52.6,21.6,83.2c1.4,0.8,3.7,1.8,6.6,2c5.9,0.5,10.2-2.4,11.5-3.4c-1-15.2-2.1-30.4-3.1-45.6
			c0-0.1-2.6-38.4-2.6-38.4c-2.8-41.9-8.4-123.5-8.7-128.1C378.8,299.7,359.7,297.8,340.6,295.9z"/>
		<g>
			<path class="st4" d="M342.2,307.5c16.3,68.7,33.5,137.2,51.6,205.5"/>
		</g>
		<g>
			<path class="st4" d="M399.8,328.3c4.2,61.8,8.4,123.7,12.6,185.5"/>
		</g>
		<g>
			<path class="st4" d="M394.3,515.2c5.2,2.9,11.9,2.8,17.1-0.2"/>
		</g>
		<g>
			<g>
				<path class="st5" d="M378.3,531c2-0.6,4.4-1.3,6.2,0.3c0.4,0.3,0.9-0.2,0.5-0.5c-2-1.8-4.6-1.2-6.9-0.5
					C377.6,530.4,377.8,531.1,378.3,531L378.3,531z"/>
			</g>
		</g>
		<g>
			<g>
				<path class="st5" d="M382.9,526.2c1.8-0.9,4-0.6,5.6,0.6c0.4,0.3,0.9-0.2,0.5-0.5c-1.9-1.5-4.3-1.8-6.5-0.7
					C382.1,525.7,382.5,526.4,382.9,526.2L382.9,526.2z"/>
			</g>
		</g>
		<g>
			<g>
				<path class="st5" d="M387.6,520.9c3.1-1.3,6.7-0.4,8.7,2.3c0.3,0.4,0.9,0,0.6-0.4c-2.3-3-6.3-4-9.7-2.6
					C386.8,520.4,387.2,521.1,387.6,520.9L387.6,520.9z"/>
			</g>
		</g>
		<g>
			<g>
				<path class="st5" d="M387,541.8c7.3-3.2,14.5-6.7,21.5-10.4c0.4-0.2,0-0.9-0.4-0.6c-7.1,3.7-14.2,7.2-21.5,10.4
					C386.2,541.3,386.6,542,387,541.8L387,541.8z"/>
			</g>
		</g>
	</g>
	<g id="leg_left">
		<path class="st2" d="M427.5,513.7c-2.8,2.6-6.6,6.2-11.1,10.4c-19.5,18.8-29.3,28.1-28,30.2c1.3,2.1,14-1.9,59.2-25.7
			c-1.4-6.4-2.8-12.7-4.1-19.1C438.2,510.9,432.8,512.3,427.5,513.7z"/>
		<path class="st3" d="M361.7,304.6c-1,1.5-3.5,5.8-3.3,11.6c0.2,4.1,1.7,7.1,2.6,8.7c3.4,3.7,6.8,7.4,10.2,11.1
			c0.9,3.1,4.7,15.6,5.7,18.7c9.6,31.5,19.1,63,28.7,94.5c6.6,21.6,13.1,43.1,19.7,64.7c1.1,0.8,3.7,2.5,7.3,2.7
			c6.7,0.3,10.9-5,11.3-5.6c-0.6-5-1.7-13.7-3-24.5c-4.1-33.7-7.8-65.2-17.1-145.5c-0.6-5.6-3.9-34-4.6-39.7
			C400,302.4,380.8,303.5,361.7,304.6z"/>
		<g>
			<path class="st4" d="M419.8,307.6c7.9,67.3,15.8,134.6,23.7,202"/>
		</g>
		<g>
			<g>
				<path class="st5" d="M360.7,325.1c3.3,3,6.5,6.1,9.6,9.4c0.3,0.4,0.9-0.2,0.5-0.5c-3.1-3.3-6.3-6.4-9.6-9.4
					C360.9,324.3,360.3,324.8,360.7,325.1L360.7,325.1z"/>
			</g>
		</g>
		<g>
			<g>
				<path class="st5" d="M370.8,336.1c18,59.3,36,118.6,54,177.9c0.1,0.5,0.9,0.3,0.7-0.2c-18-59.3-36-118.6-54-177.9
					C371.4,335.4,370.6,335.6,370.8,336.1L370.8,336.1z"/>
			</g>
		</g>
		<g>
			<path class="st4" d="M426.8,515.1c2.4,1.6,5.6,1.8,8.4,1.1c2.8-0.7,5.3-2.4,7.5-4.3"/>
		</g>
		<g>
			<g>
				<path class="st5" d="M409.8,530.4c2.4-1.4,4.7-1.1,7.1,0.2c0.4,0.2,0.8-0.4,0.4-0.6c-2.6-1.4-5.2-1.7-7.8-0.2
					C409.1,530,409.4,530.6,409.8,530.4L409.8,530.4z"/>
			</g>
		</g>
		<g>
			<g>
				<path class="st5" d="M413.9,526.3c2.1-0.9,4.5-0.8,6.5,0.3c0.4,0.2,0.8-0.4,0.4-0.6c-2.3-1.3-4.9-1.4-7.3-0.3
					C413.1,525.8,413.5,526.5,413.9,526.3L413.9,526.3z"/>
			</g>
		</g>
		<g>
			<g>
				<path class="st5" d="M418.7,521.6c2.2-0.7,4.4-0.5,6.4,0.6c0.4,0.2,0.8-0.4,0.4-0.6c-2.1-1.3-4.6-1.5-7-0.7
					C418.1,521,418.3,521.7,418.7,521.6L418.7,521.6z"/>
			</g>
		</g>
		<g>
			<g>
				<path class="st5" d="M412.9,544.7c10.8-5.4,21.6-11.1,32.1-17c0.4-0.2,0-0.9-0.4-0.6c-10.6,5.9-21.3,11.6-32.1,17
					C412.1,544.3,412.5,544.9,412.9,544.7L412.9,544.7z"/>
			</g>
		</g>
	</g>
	<g id="hand_right">
		<path class="st6" d="M228.4,153.6c-1.2-1.7-2.8-3.5-4.8-5.4c-2.5-2.4-4.9-4.1-7-5.4c-2.6-3.7-5.3-6.3-7.2-8
			c-2.6-2.3-6.6-5.8-8.5-4.7c-1.3,0.8-1,3.3-0.9,3.7c0.3,3,2.9,4.5,3.2,4.7c-0.5,0.9-1.2,2.3-2,4.1c-1.5,3.8-2.6,6.3-1.6,8.8
			c0.3,0.7,1,2.2,3.2,3.5c1.9,0,3.7,0,5.6,0c1.3,2.6,2.8,3.5,3.9,3.9c1.7,0.6,2.9,0,4.8,0.6c1.8,0.6,3.1,1.8,3.8,2.8
			C223.4,159.3,225.9,156.4,228.4,153.6z"/>
		<path class="st7" d="M328.1,146.6c-2.1-0.1-3.7,1.4-4.4,2c-11.4,10.4-15.7,15.6-15.7,15.6c-2.1,2.6-7.6,9.2-14.5,15.6
			c-4.6,4.3-8.7,7.3-11.5,9.3c-5.4-2.8-11-5.9-16.7-9.4c-14-8.5-25.7-17.6-35.6-26.2c-1.2,0.4-3.4,1.5-5.4,3.7
			c-2.7,3.1-3,6.6-3.1,7.8c1.2,1.4,2.8,3.4,4.9,5.8c3.1,3.7,9.5,11,20.9,22.8c7.5,7.7,12.6,12.6,19.2,17.6c3.1,2.4,6.6,4.8,11.7,6.2
			c1.3,0.4,6.2,1.5,12.5,0.6c5.2-0.8,8.9-2.7,12.3-4.6c12.3-6.9,18.5-10.4,24.5-17.2c4.9-5.6,12-13.6,12.5-25.4
			c0.6-13.2-7.4-22.4-9.7-23.6C329.1,146.7,328.1,146.6,328.1,146.6z"/>
		<g>
			<path class="st4" d="M325.8,147.7c-3.2,1.1-5.8,3.5-8.2,5.9c-11.7,12.1-21.6,26.2-35.6,35.5"/>
		</g>
		<g>
			<path class="st4" d="M229.8,153.5c15.7,12.8,32.3,24.5,49.5,35.1"/>
		</g>
		<g>
			<g>
				<path d="M221.2,162.3c1.6-3.3,4.1-6,7.4-7.7c0.4-0.2,0.1-0.9-0.4-0.6c-3.4,1.7-6.1,4.5-7.7,7.9
					C220.4,162.4,221,162.8,221.2,162.3L221.2,162.3z"/>
			</g>
		</g>
		<g>
			<path class="st4" d="M221.3,165c11.2,13.7,23.3,26.7,36.2,38.8c7.3,6.8,15.6,13.7,25.5,14.6c9.1,0.8,17.8-3.7,25.6-8.5
				c8.7-5.4,17.1-11.5,23.9-19.2"/>
		</g>
		<g>
			<g>
				<path d="M228.6,153.3c-2.6-3.3-5.4-6.3-8.6-9c-1.6-1.3-3.3-2.7-5.4-1.5c-1.5,0.9-3.4,3.4-2.7,5.2c0.9,2,2.9,0.9,4.5,0.6
					c0.5-0.1,0.3-0.8-0.2-0.7c-0.3,0.1-1.6,0.5-1.8,0.4c-0.4-1-0.8-2-1.2-3c0.4-0.5,0.8-1,1.1-1.4c1.8-0.9,3.8-0.2,5.1,0.9
					c0.7,0.6,1.4,1.2,2.1,1.9c2.4,2.2,4.5,4.6,6.5,7.1C228.4,154.2,228.9,153.7,228.6,153.3L228.6,153.3z"/>
			</g>
		</g>
		<g>
			<path class="st4" d="M216.3,141.5c-3.1-3.6-6.6-6.8-10.4-9.5c-1.5-1.1-3.2-2.1-5-2c-0.4,0-0.9,0.1-1.2,0.4
				c-0.9,0.8-0.4,2.3,0.3,3.3c1.5,2.4,3.2,4.7,5,6.9"/>
		</g>
		<g>
			<g>
				<path d="M201.3,140.8c-1.9,3.8,1.2,7,4.3,8.8c0.4,0.2,0.8-0.4,0.4-0.6c-2.7-1.5-5.8-4.3-4-7.7
					C202.2,140.7,201.5,140.3,201.3,140.8L201.3,140.8z"/>
			</g>
		</g>
		<g>
			<g>
				<path d="M200,145.6c0,3.4,2.3,6.4,5.6,7.3c0.5,0.1,0.7-0.6,0.2-0.7c-3-0.8-5.1-3.5-5.1-6.6C200.8,145.1,200,145.1,200,145.6
					L200,145.6z"/>
			</g>
		</g>
		<g>
			<g>
				<path d="M200.3,152.6c1.1,2.4,3.8,3.6,6.3,2.8c0.5-0.2,0.3-0.9-0.2-0.7c-2.2,0.7-4.5-0.3-5.5-2.4
					C200.7,151.8,200.1,152.2,200.3,152.6L200.3,152.6z"/>
			</g>
		</g>
		<g>
			<path class="st4" d="M208.4,154.8c1.4,2.1,3.2,4.3,5.7,4.6c1,0.1,1.9-0.1,2.9,0c1,0.1,2,0.5,2.3,1.4"/>
		</g>
	</g>
	<g id="torso">
		<path class="st7" d="M328.1,146.6c-1.9,3-4.4,7.5-5.9,13.5c-1.8,7-1.5,12.6-1,18.7c1.5,20.9,2.8,28.7,2.8,28.7
			c5.6,34.6,3.6,32.2,8.6,59.6c1.5,8.1,3.6,19,6.5,31.7c3.7,2.3,8.8,5.1,15.1,7.6c11.3,4.4,20.6,5.5,23.8,5.9c4.2,0.4,13,1,23.9-1
			c7.3-1.3,13.2-3.3,17.7-5.1c-0.4-5.4-1-13.3-1.8-22.9c-1.9-21.9-3.5-35.2-4.8-48c-1.4-13.3-3-32.1-4.3-55.4
			c-1.6-2-3.3-4.1-4.9-6.1c-4.2-3.3-10.1-7.4-17.6-11.4c-2.9-1.6-14.4-7.4-30.7-11.7C348.9,149.1,339.7,147.2,328.1,146.6z"/>
		<g>
			<path class="st4" d="M328.1,146.6c27,1.4,53.5,10.7,75.5,26.5"/>
		</g>
		<g>
			<g>
				<path d="M320.7,176.6c3.1,38.7,8.6,77.2,16.3,115.3c0.1,0.5,0.8,0.3,0.7-0.2c-7.7-38-13.2-76.5-16.3-115.1
					C321.4,176.1,320.6,176.1,320.7,176.6L320.7,176.6z"/>
			</g>
		</g>
		<g>
			<path class="st4" d="M340.8,299.4c22.7,14.8,52.9,17.5,77.9,6.9"/>
		</g>
		<g>
			<g>
				<path d="M408.2,186.8c3.7,39.3,7.3,78.7,11,118c0,0.5,0.8,0.5,0.8,0c-3.7-39.3-7.3-78.7-11-118
					C408.9,186.3,408.1,186.3,408.2,186.8L408.2,186.8z"/>
			</g>
		</g>
	</g>
	<g id="coffee">
		<polygon class="st2" points="416.1,301.2 401.1,301.2 394.6,267.1 419.4,267.1 		"/>
		<ellipse class="st0" cx="407.1" cy="267.7" rx="12.2" ry="4.8"/>
	</g>
	<g id="hand_left">
		<path class="st6" d="M420.5,273.2c-0.4,0-1.5,0-2.7,0.2c-1.7,0.3-3,0.5-3.9,1.3c-2,1.7-1.3,5.2-1.2,5.7c-3,0.9-5.4,1.5-7,1.9
			c-3,0.7-4.2,0.8-4.9,2c-0.5,0.8-0.4,1.5-0.3,4.9c0.1,2,0.1,3.7,0.2,4.7c0.8,1.1,2.4,3.1,5.1,4.5c3.9,2,7.6,1.5,8.9,1.3
			c4.6-0.7,7.5-3.3,8.8-4.5c2-1.8,5.3-4.8,5.6-9.4C429.7,279.3,424.1,273.3,420.5,273.2z"/>
		<path class="st7" d="M403.8,173.8c-1.4,1.4-2.9,3-4.2,5c-5.7,8.4-5.8,17.5-5.5,21.9c1,2.2,2.5,5.3,4.3,8.9
			c3.8,7.4,8.8,16.5,15.5,26.3c2.3,3.4,5.4,7.8,9.2,12.8c-0.3,3.3-0.6,6.6-1,10c-0.6,5.1-1.2,10-2,14.8c2.6,0.3,4.1,1.3,4.9,1.8
			c2.4,1.9,3.2,4.8,4,7.5c0.4,1.6,0.6,3,0.7,4c1.3-1.9,3.1-4.6,5-8c1.7-3.1,3.6-6.5,5.2-11.1c1.4-3.9,2.8-8.1,2.8-13.4
			c0-1.1-0.1-2.2-2.4-12.6c-1.5-6.6-2.2-9.9-2.9-12.3c-0.8-3-2.5-8.4-5.1-14.8c-2-4.8-5-12.1-10.3-20.2
			C418.3,189,412.5,181.4,403.8,173.8z"/>
		<g>
			<path class="st4" d="M407,174.7c17.7,19.4,29.6,44.1,33.7,70.1"/>
		</g>
		<g>
			<path class="st4" d="M442.5,249.7c0.6,6.7-0.8,13.4-3.3,19.6s-5.9,12-9.7,17.5"/>
		</g>
		<g>
			<path class="st4" d="M422.1,274.4c2.5,0.1,4.5,2,5.6,4.3s1.3,4.7,1.5,7.2"/>
		</g>
		<g>
			<path class="st4" d="M420.5,273.2c0.1-6.4,1-12.8,2.6-19.1"/>
		</g>
		<g>
			<g>
				<path class="st5" d="M393.7,200.9c7.9,17,17.6,33.1,29,48c0.3,0.4,0.9,0,0.6-0.4c-11.4-14.9-21.1-30.9-29-48
					C394.2,200.1,393.5,200.5,393.7,200.9L393.7,200.9z"/>
			</g>
		</g>
		<g>
			<g>
				<path d="M420.1,273.2c-2-0.1-4.3-0.3-6,1c-1.3,0.9-1.9,2.3-1.7,3.8c0.1,0.5,0.8,0.3,0.7-0.2c-0.6-3.9,4.5-4,7-3.9
					C420.6,273.9,420.6,273.2,420.1,273.2L420.1,273.2z"/>
			</g>
		</g>
		<g>
			<path class="st4" d="M414,280.2c-2.1,0.6-4.2,1.2-6.3,1.8c-0.6,0.2-1.3,0.4-1.9,0.4c-0.8,0.1-1.7,0.1-2.5,0.3
				c-0.8,0.2-1.6,0.6-2,1.3"/>
		</g>
		<g>
			<g>
				<path d="M400.7,287.5c4.1,3,9,3.5,13.9,3.9c0.5,0,0.5-0.7,0-0.8c-4.8-0.4-9.6-0.8-13.6-3.8C400.7,286.6,400.3,287.2,400.7,287.5
					L400.7,287.5z"/>
			</g>
		</g>
		<g>
			<g>
				<path d="M400.6,290.2c2.4,3.1,7.8,4.7,11.5,5c0.5,0,0.5-0.7,0-0.8c-3.6-0.3-8.7-1.9-11-4.8C400.8,289.3,400.3,289.8,400.6,290.2
					L400.6,290.2z"/>
			</g>
		</g>
		<g>
			<path class="st4" d="M400.7,293.9c1.3,2.3,3.6,4,6.2,4.9c2.5,0.9,5.2,1.1,7.9,0.9c1.6-0.1,3.2-0.3,4.6-1c1.7-0.8,3-2.2,4.3-3.5"
				/>
		</g>
	</g>
	<g id="head">
		<path class="st3" d="M400,130.1c-0.3,1.3-3.1,11.5-11.1,15.9c-13.7,7.5-36.2-5.2-38.8-19.3c-0.9-4.8,0.2-11.7,4.2-13.9
			c4.1-2.3,7.8,2.5,14.8,1.1c6.8-1.4,6.8-6.7,12.8-7.7c6.9-1.2,15.6,4.3,18.3,12C401.9,122.9,400.7,127.2,400,130.1z"/>
		<path class="st2" d="M363.8,121.6c1.6,0,4.3,0.3,7.2,1.8c5.4,2.9,7.2,8,7.7,9.3c0.1-1,0.2-4.8-2.6-8
			C373.3,121.5,368.5,120.2,363.8,121.6z"/>
		<path class="st6" d="M360.6,155.4c0.1,0.8,0.2,1.6,0.3,2.4c-0.9,0-1.7,0.5-2,1.2c-0.5,1,0.2,2,0.3,2.2c1.1,1.6,3.5,1.6,4.3,1.6
			c2.2,0,3.9-1,5.5-1.9c1-0.6,2.1-1.2,3.2-2.5c1.5-1.7,2.2-3.4,2.6-4.5c0.4-3.1-0.4-4.1-0.9-4.6
			C371.8,147.8,366.6,150.3,360.6,155.4z"/>
		<g>
			<g>
				<path d="M360.5,156.9c0.2,0.9,0.3,1.7,0.5,2.6c0.1,0.5,0.8,0.3,0.7-0.2c-0.2-0.9-0.3-1.7-0.5-2.6
					C361.2,156.2,360.4,156.4,360.5,156.9L360.5,156.9z"/>
			</g>
		</g>
		<g>
			<path class="st4" d="M359.2,158.5c-0.9,1.2-0.2,3,1.1,3.8c1.3,0.7,2.9,0.7,4.3,0.3c3.5-0.8,6.7-2.8,9-5.7"/>
		</g>
		<path class="st6" d="M354.8,126.9c-1.9,1.2-2.9,2.9-4,4.6c-0.8,1.3-2.6,4.1-2.9,8.3c-0.1,0.9-0.2,2.8,0.3,5.1
			c1.1,4.7,4.9,9.4,10.3,11.2c3.8,1.3,7.1,0.7,8.7,0.3c1.1-0.3,5.4-1.5,8.6-5.6c0.8-1,2.7-3.5,3.1-7.4c0.3-2.7-0.4-4.8-0.7-5.7
			c-1.8-5.6-7-10.9-13.6-12.2C363,125.3,358.6,124.5,354.8,126.9z"/>
		<g>
			<path class="st4" d="M349.8,133.5c-2.7,4.6-2.7,10.6-0.2,15.3s7.7,7.9,13,8.1s10.7-2.4,13.7-6.9"/>
		</g>
		<g>
			<path class="st4" d="M370.7,139.8c0.9,1.7,2.2,3.3,4,4.1c1.8,0.8,4.1,0.7,5.4-0.7"/>
		</g>
		<g>
			<path class="st4" d="M349.8,133.6c1.1-1.8,2.4-3.5,4-4.9c1.6-1.4,3.7-2.3,5.8-2.2c2.1,0.1,4,1.2,5.5,2.7s2.5,3.4,3.3,5.3"/>
		</g>
		<g>
			<path class="st4" d="M349.8,133.6c1.9-4.8,5.8-9,10.7-10.8c4.9-1.8,10.8-0.9,14.7,2.6c1.2,1.1,2.1,2.3,2.9,3.7
				c2.3,3.9,3.3,8.5,2.9,12.9"/>
		</g>
		<g>
			<g>
				<path d="M356.9,134.2c-2.6,3.5-6.8,9.2-3.7,13.6c0.3,0.4,0.9,0,0.6-0.4c-2.9-4,1.3-9.5,3.7-12.8
					C357.8,134.2,357.2,133.9,356.9,134.2L356.9,134.2z"/>
			</g>
		</g>
		<ellipse transform="matrix(0.4538 -0.8911 0.8911 0.4538 74.2322 396.8198)" cx="360.8" cy="137.9" rx="1.5" ry="0.8"/>
		<g>
			<g>
				<path d="M361,132.6c1.4-0.4,2.8,0.4,3,1.9c0.1,0.5,0.8,0.5,0.8,0c-0.2-1.9-2-3.2-3.9-2.6C360.3,132,360.5,132.7,361,132.6
					L361,132.6z"/>
			</g>
		</g>
		<ellipse transform="matrix(0.4538 -0.8911 0.8911 0.4538 72.5827 388.3675)" cx="353.1" cy="135" rx="1.5" ry="0.8"/>
		<path class="st3" d="M351.4,131.1c0.7-0.8,2-2.3,4.2-3.2c0.9-0.4,3.6-1.6,6.3-0.8c2.8,0.8,4.2,3.2,5.6,5.5
			c2.9,4.8,1.9,7.1,4.9,9.7c0.6,0.5,2.1,1.7,4.4,2.1c2.1,0.3,3.8-0.3,4.6-0.7c0.1-0.7,0.3-1.7,0.3-2.9c0.1-3.2-0.9-5.6-1.4-6.8
			c-0.9-2.4-3.6-7.6-9.2-10.9c-8.4-5.1-20.8-4.4-22.7,0C347.9,124.3,347.8,126.6,351.4,131.1z"/>
	</g>
	<g id="tabs">
		<polygon class="st8" points="224.7,241.4 108,175.7 101.8,35.2 228.4,68.8 		"/>
		<path class="st9" d="M145.8,171.6c-0.5,5,7.3,136.4,7.3,136.4L293,406.6l-6.2-150.1L145.8,171.6z"/>
		<line class="st10" x1="160.9" y1="222.5" x2="265.4" y2="285.8"/>
		<line class="st10" x1="175.2" y1="227.2" x2="174.8" y2="234.2"/>
		<line class="st10" x1="158.3" y1="243" x2="264.6" y2="309.5"/>
		<line class="st10" x1="201.1" y1="266.7" x2="201.1" y2="275.7"/>
		<ellipse class="st10" cx="170.1" cy="296.7" rx="5" ry="9.5"/>
		<ellipse class="st10" cx="196.1" cy="315.4" rx="5" ry="9.5"/>
		<ellipse class="st10" cx="224" cy="332.8" rx="5" ry="9.5"/>
		<ellipse class="st10" cx="254.5" cy="353.4" rx="5" ry="9.5"/>
		<line class="st11" x1="116.8" y1="139.5" x2="196.8" y2="180.3"/>
		<line class="st10" x1="173" y1="162.8" x2="173.2" y2="171.6"/>
		<line class="st10" x1="117.5" y1="121.8" x2="194.2" y2="157"/>
		<line class="st10" x1="141.5" y1="128.6" x2="141.5" y2="135.7"/>
		<polygon class="st0" points="217.5,124.6 136.5,93.7 136.5,81.2 217.5,106.8 		"/>
		<polygon class="st3" points="194.2,116.6 113.2,85.7 113.2,73.1 194.2,98.8 		"/>
	</g>
</g>
</svg>
