<?xml version="1.0" encoding="UTF-8" standalone="no"?><!DOCTYPE svg PUBLIC "-//W3C//DTD SVG 1.1//EN" "http://www.w3.org/Graphics/SVG/1.1/DTD/svg11.dtd"><svg width="100%" height="100%" viewBox="0 0 3638 880" version="1.1" xmlns="http://www.w3.org/2000/svg" xmlns:xlink="http://www.w3.org/1999/xlink" xml:space="preserve" xmlns:serif="http://www.serif.com/" style="fill-rule:evenodd;clip-rule:evenodd;stroke-linejoin:round;stroke-miterlimit:2;"><path d="M2454.99,852.048l-2282.2,0" style="fill:none;"/><path d="M2454.99,848.115c0,-0 -10.029,-5.191 -34.233,-12.906c-9.737,-3.103 -20.572,-5.397 -34.233,-8.981c-2.157,-0.566 -4.089,-1.357 -6.39,-1.676c-3.079,-0.427 -6.301,-0.162 -9.585,-0.182c-37.426,-0.225 -86.138,0.295 -143.778,0.995c-177.772,2.159 -440.318,8.236 -718.894,12.489c-101.706,1.552 -205.506,3.068 -308.095,4.053c-530.079,5.089 -1026.99,6.208 -1026.99,6.208c-2.171,-0 -3.933,1.762 -3.933,3.933c-0,2.171 1.762,3.934 3.933,3.934c0,-0 496.914,1.118 1026.99,6.207c102.59,0.985 206.39,2.501 308.097,4.054c278.575,4.252 541.121,10.33 718.892,12.489c57.641,0.7 106.352,1.219 143.779,0.994c3.283,-0.019 6.506,0.246 9.585,-0.181c2.301,-0.319 4.233,-1.111 6.39,-1.677c13.661,-3.584 24.495,-5.877 34.233,-8.981c24.204,-7.714 34.232,-12.905 34.232,-12.905c2.171,-0 3.934,-1.763 3.934,-3.934c0,-2.171 -1.763,-3.933 -3.934,-3.933Z" style="fill:#3ab960;"/><path d="M520.109,291.49c0,32.973 -8.838,62.505 -26.516,88.596c-17.677,26.09 -41.437,45.058 -71.278,56.903c49.627,15.046 86.604,37.695 110.931,67.947c24.327,30.253 36.49,66.027 36.49,107.324c0,68.828 -24.57,117.328 -73.71,145.5c-49.141,28.171 -116.202,42.257 -201.184,42.257l-294.842,-0l-0,-670.834l288.517,0c72.008,0 128.609,14.646 169.802,43.938c41.194,29.292 61.79,68.748 61.79,118.369Zm-163.476,27.851c-0,-29.772 -8.515,-51.541 -25.544,-65.307c-17.029,-13.765 -43.707,-20.648 -80.035,-20.648l-79.793,-0l0,174.311l72.495,-0c37.301,-0 65.439,-7.043 84.414,-21.129c18.975,-14.085 28.463,-36.495 28.463,-67.227Zm40.869,284.756c-0,-62.105 -45.573,-93.158 -136.717,-93.158l-89.524,-0l0,184.875l89.524,0c91.144,0 136.717,-30.572 136.717,-91.717Z" style="fill:#213b72;fill-rule:nonzero;"/><path d="M895.585,322.365l144.083,0l-211.859,473.485l-96.214,0l-209.49,-473.485l156.406,0l105.693,257.834l111.381,-257.834Z" style="fill:#213b72;fill-rule:nonzero;"/><rect x="979.365" y="487.303" width="205.308" height="138.87" style="fill:#213b72;fill-rule:nonzero;"/><path d="M1728.15,556.975c0,49.291 -11.059,92.343 -33.177,129.154c-22.118,36.81 -53.162,65.248 -93.133,85.312c-39.97,20.064 -85.865,30.097 -137.685,30.097c-55.611,-0 -103.165,-10.823 -142.661,-32.467c-39.497,-21.644 -69.435,-50.871 -89.816,-87.682c-20.38,-36.811 -30.57,-77.966 -30.57,-123.466c0,-47.08 10.348,-89.105 31.044,-126.073c20.697,-36.969 50.951,-65.96 90.763,-86.972c39.813,-21.012 87.209,-31.518 142.188,-31.518c54.347,-0 101.269,10.348 140.766,31.044c39.497,20.696 69.751,49.529 90.763,86.498c21.012,36.968 31.518,78.993 31.518,126.073Zm-374.901,-0c-0,40.76 10.032,72.989 30.096,96.687c20.065,23.698 47.317,35.547 81.758,35.547c34.125,0 61.22,-12.007 81.284,-36.021c20.064,-24.014 30.097,-56.085 30.097,-96.213c-0,-41.393 -10.349,-73.543 -31.045,-96.451c-20.696,-22.908 -48.107,-34.362 -82.232,-34.362c-33.809,0 -60.587,11.612 -80.336,34.836c-19.748,23.224 -29.622,55.216 -29.622,95.977Z" style="fill:#213b72;fill-rule:nonzero;"/><path d="M2226.49,505.787l-0,287.219l-145.506,0l0,-265.891c0,-66.038 -25.277,-99.057 -75.833,-99.057c-19.274,-0 -37.364,5.845 -54.268,17.536c-16.905,11.691 -33.415,29.86 -49.529,54.506l-0,292.906l-145.506,0l0,-470.641l145.506,0l-0,64.932c43.92,-49.291 97.003,-73.937 159.25,-73.937c56.875,-0 98.742,17.141 125.599,51.424c26.858,34.283 40.287,81.284 40.287,141.003Z" style="fill:#213b72;fill-rule:nonzero;"/><path d="M3159.72,505.787l-0,287.219l-145.506,0l0,-265.891c0,-66.038 -25.278,-99.057 -75.833,-99.057c-19.275,-0 -37.364,5.845 -54.269,17.536c-16.904,11.691 -33.414,29.86 -49.528,54.506l-0,292.906l-145.506,0l0,-470.641l145.506,0l-0,64.932c43.92,-49.291 97.003,-73.937 159.25,-73.937c56.875,-0 98.741,17.141 125.599,51.424c26.858,34.283 40.287,81.284 40.287,141.003Z" style="fill:#213b72;fill-rule:nonzero;"/><path d="M3637.32,561.24l-0,27.016l-329.876,0c5.056,33.493 20.38,60.43 45.974,80.81c25.594,20.38 56.243,30.57 91.948,30.57c58.139,0 118.332,-16.43 180.579,-49.291l-0,0.002c0,70.461 -50.38,130.845 -119.701,143.468c-28.166,5.113 -57.931,7.723 -89.315,7.723c-51.504,-0 -96.846,-10.191 -136.027,-30.571c-39.18,-20.38 -69.435,-49.134 -90.763,-86.26c-21.328,-37.127 -31.992,-80.336 -31.992,-129.628c0,-47.712 10.19,-89.894 30.57,-126.547c20.381,-36.653 49.766,-65.012 88.157,-85.076c38.39,-20.064 83.496,-30.096 135.315,-30.096c42.024,-0 80.02,9.4 113.987,28.2c33.967,18.801 60.983,46.843 81.047,84.128c20.064,37.285 30.097,82.469 30.097,135.552Zm-231.766,-151.667c-29.07,0 -53.005,9.717 -71.805,29.149c-18.801,19.432 -28.517,44.631 -29.149,75.596l195.271,0c-0.631,-32.229 -9.242,-57.744 -25.83,-76.544c-16.589,-18.8 -39.418,-28.201 -68.487,-28.201Z" style="fill:#213b72;fill-rule:nonzero;"/><path d="M2518.14,793.006l-0,-470.641l145.505,0l0,470.641l-145.505,0Z" style="fill:#213b72;fill-rule:nonzero;"/><rect x="2518.14" y="177.846" width="145.505" height="102.852" style="fill:#213b72;fill-rule:nonzero;"/><path d="M2416.6,478.614c-24.306,3.59 -41.337,26.071 -38.111,50.512c3.225,24.441 25.504,41.734 49.91,38.895l34.872,264.247c0.365,2.767 -1.293,5.401 -3.945,6.269c-2.652,0.868 -5.546,-0.277 -6.887,-2.724c-11.963,-21.828 -26.782,-48.868 -26.782,-48.868c-0,-0 -79.734,-137.092 -122.518,-210.654c-16.997,-29.223 -22.533,-63.718 -15.536,-96.793c7.426,-35.1 17.371,-82.108 25.595,-120.977c3.544,-16.754 -1.181,-34.191 -12.701,-46.863c-11.519,-12.672 -28.427,-19.033 -45.443,-17.098c-0.003,0.001 -0.006,0.001 -0.009,0.001c-5.196,0.592 -9.909,-3.09 -10.593,-8.275c-8.415,-63.769 -35.268,-267.249 -35.268,-267.249l144.254,-19.037l63.162,478.614Z" style="fill:#213b72;fill-rule:nonzero;"/></svg>